<?xml version="1.0" encoding="utf-8"?>
<svg width="405px" height="73px" viewBox="0 0 405 73" version="1.1" xmlns:xlink="http://www.w3.org/1999/xlink" xmlns="http://www.w3.org/2000/svg">
  <defs>
    <path d="M405 0L405 0L405 73L0 73L0 0L405 0Z" id="path_1" />
    <path d="M44 0L44 0L44 44L0 44L0 0L44 0Z" id="path_2" />
    <clipPath id="clip_1">
      <use xlink:href="#path_1" clip-rule="evenodd" fill-rule="evenodd" />
    </clipPath>
    <clipPath id="clip_2">
      <use xlink:href="#path_2" clip-rule="evenodd" fill-rule="evenodd" />
    </clipPath>
  </defs>
  <g id="github">
    <path d="M405 0L405 0L405 73L0 73L0 0L405 0Z" id="github" fill="none" stroke="none" />
    <path d="M398.1 0C401.414 0 404.1 2.68584 404.1 6L404.1 67C404.1 70.3142 401.414 73 398.1 73L202.1 73L202.1 0L398.1 0Z" id="Rectangle" fill="#565656" stroke="none" clip-path="url(#clip_1)" />
    <g id="Group" transform="translate(232 14.5)" clip-path="url(#clip_1)">
      <g id="GitHub" transform="translate(50.19995 0)">
        <g transform="translate(0, 6.278409)" id="GitHub" fill="#FFFFFF">
          <path d="M13.8379 12.4541Q13.5332 11.2988 12.6318 10.6641Q11.7368 10.0293 10.3594 10.0293Q8.30273 10.0293 7.09668 11.5146Q5.89062 13 5.89062 15.7041Q5.89062 18.4272 7.05859 19.9316Q8.23291 21.436 10.3594 21.436Q12.2129 21.436 13.2158 20.5601Q14.2251 19.6777 14.2632 18.1797L10.5181 18.1797L10.5181 14.8472L18.6685 14.8472L18.6685 17.3481Q18.6685 19.8872 17.5957 21.7026Q16.5293 23.5181 14.644 24.4829Q12.7588 25.4478 10.3213 25.4478Q7.61719 25.4478 5.56689 24.2734Q3.5166 23.0928 2.36768 20.9219Q1.2251 18.751 1.2251 15.7612Q1.2251 12.6699 2.4375 10.4927Q3.6499 8.30908 5.69385 7.1665Q7.74414 6.01758 10.2642 6.01758Q12.4541 6.01758 14.2251 6.84277Q16.0024 7.66162 17.1196 9.11523Q18.2368 10.5688 18.4653 12.4541L13.8379 12.4541ZM22.2485 25.1875L22.2485 11.0068L26.7681 11.0068L26.7681 25.1875L22.2485 25.1875ZM24.5146 9.3501Q23.5625 9.3501 22.877 8.72168Q22.1978 8.08691 22.1978 7.19189Q22.1978 6.29687 22.877 5.66846Q23.5625 5.04004 24.5146 5.04004Q25.4731 5.04004 26.1523 5.66846Q26.8315 6.29687 26.8315 7.19189Q26.8315 8.08691 26.1523 8.72168Q25.4731 9.3501 24.5146 9.3501ZM37.6364 11.0068L37.6364 14.3267L35.0783 14.3267L35.0783 20.7251Q35.0783 21.3535 35.3766 21.6074Q35.675 21.8613 36.2209 21.8613Q36.4811 21.8613 36.7668 21.8105Q37.0588 21.7598 37.2111 21.728L37.8903 24.9844Q37.5666 25.0796 36.9826 25.2129Q36.405 25.3462 35.5861 25.3906Q33.193 25.4985 31.8664 24.4385Q30.5397 23.3784 30.5588 21.2266L30.5588 14.3267L28.6862 14.3267L28.6862 11.0068L30.5588 11.0068L30.5588 7.61084L35.0783 7.61084L35.0783 11.0068L37.6364 11.0068ZM40.2343 25.1875L40.2343 6.27783L44.8046 6.27783L44.8046 13.8696L52.2568 13.8696L52.2568 6.27783L56.8208 6.27783L56.8208 25.1875L52.2568 25.1875L52.2568 17.5894L44.8046 17.5894L44.8046 25.1875L40.2343 25.1875ZM68.8323 19.0684L68.8323 11.0068L73.3391 11.0068L73.3391 25.1875L69.0354 25.1875L69.0354 22.5469L68.8894 22.5469Q68.4133 23.8481 67.2834 24.6099Q66.1535 25.3716 64.5539 25.3716Q63.1003 25.3716 62.0022 24.7114Q60.9104 24.0449 60.301 22.8452Q59.6916 21.6392 59.6789 20.0459L59.6789 11.0068L64.1985 11.0068L64.1985 19.1572Q64.2048 20.3125 64.8015 20.979Q65.4045 21.6392 66.4392 21.6392Q67.4485 21.6392 68.1404 20.9727Q68.8323 20.3062 68.8323 19.0684ZM76.2059 25.1875L76.2059 6.27783L80.7254 6.27783L80.7254 13.4316L80.8143 13.4316Q81.2206 12.4541 82.1854 11.6416Q83.1503 10.8228 84.8324 10.8228Q86.3177 10.8228 87.6 11.6035Q88.8885 12.3843 89.682 13.9966Q90.4754 15.6025 90.4754 18.1035Q90.4754 20.522 89.7137 22.1406Q88.952 23.7593 87.6634 24.5781Q86.3749 25.3906 84.807 25.3906Q83.201 25.3906 82.2235 24.6289Q81.2523 23.8672 80.8143 22.8896L80.6747 22.8896L80.6747 25.1875L76.2059 25.1875ZM80.6302 18.0972Q80.6302 19.8237 81.3158 20.852Q82.0077 21.874 83.2455 21.874Q84.5023 21.874 85.1688 20.8457Q85.8417 19.811 85.8417 18.0972Q85.8417 16.3896 85.1688 15.3677Q84.5023 14.3457 83.2455 14.3457Q82.0077 14.3457 81.3158 15.355Q80.6302 16.3579 80.6302 18.0972Z" />
        </g>
      </g>
      <g id="Github">
        <path d="M44 0L44 0L44 44L0 44L0 0L44 0Z" id="Github" fill="none" stroke="none" />
        <path d="M22 4.3999C12.2804 4.3999 4.40002 12.2803 4.40002 21.9999C4.40002 30.247 10.079 37.1476 17.735 39.0572C17.6528 38.8196 17.6 38.5439 17.6 38.2022L17.6 35.194C16.8858 35.194 15.689 35.194 15.3883 35.194C14.1842 35.194 13.1135 34.6763 12.5943 33.7142C12.0179 32.645 11.9182 31.0096 10.4896 30.0094C10.0658 29.6764 10.3884 29.2966 10.8768 29.3479C11.7788 29.6031 12.5268 30.222 13.2308 31.1402C13.9319 32.0598 14.2619 32.268 15.5716 32.268C16.2067 32.268 17.1571 32.2314 18.0518 32.0906C18.5328 30.8688 19.3644 29.7439 20.3808 29.213C14.52 28.6102 11.7231 25.6944 11.7231 21.7359C11.7231 20.0316 12.4491 18.3831 13.6826 16.9942C13.2778 15.6155 12.7688 12.8039 13.838 11.7332C16.4751 11.7332 18.0694 13.4434 18.4522 13.9054C19.7663 13.4551 21.2095 13.1999 22.726 13.1999C24.2455 13.1999 25.6946 13.4551 27.0116 13.9083C27.39 13.4492 28.9858 11.7332 31.6287 11.7332C32.7023 12.8054 32.1875 15.6287 31.7783 17.0044C33.0044 18.3904 33.726 20.0346 33.726 21.7359C33.726 25.6915 30.9335 28.6058 25.0815 29.2115C26.6919 30.0519 27.8667 32.4132 27.8667 34.1923L27.8667 38.2022C27.8667 38.3547 27.833 38.4647 27.8154 38.5952C34.6735 36.1914 39.6 29.6794 39.6 21.9999C39.6 12.2803 31.7196 4.3999 22 4.3999L22 4.3999Z" id="Shape" fill="#FFFFFF" stroke="none" clip-path="url(#clip_2)" />
      </g>
    </g>
    <path d="M202 0L202 0L202 73L6 73C2.68584 73 0 70.3142 0 67L0 6C0 2.68584 2.68584 0 6 0L202 0Z" id="Rectangle" fill="#6F6F6F" stroke="none" clip-path="url(#clip_1)" />
    <g id="View-it-on" transform="translate(39 14.5)" clip-path="url(#clip_1)">
      <g transform="translate(0, 6.278409)" id="View-it-on" fill="#FFFFFF">
        <path d="M4.39258 6.27783L9.31836 21.1631L9.50879 21.1631L14.4219 6.27783L18.186 6.27783L11.521 25.1875L7.29346 25.1875L0.634766 6.27783L4.39258 6.27783ZM20.537 25.1875L20.537 11.0068L23.8758 11.0068L23.8758 25.1875L20.537 25.1875ZM22.2128 8.99463Q21.413 8.99463 20.8417 8.46142Q20.2767 7.92822 20.2767 7.18554Q20.2767 6.42383 20.8417 5.89697Q21.413 5.36377 22.2128 5.36377Q23.0062 5.36377 23.5712 5.89697Q24.1424 6.42383 24.1424 7.18554Q24.1424 7.92822 23.5712 8.46142Q23.0062 8.99463 22.2128 8.99463ZM33.5918 25.4668Q31.459 25.4668 29.9102 24.5718Q28.3613 23.6704 27.5298 22.0391Q26.7046 20.4077 26.7046 18.1797Q26.7046 15.9897 27.5298 14.333Q28.3613 12.6763 29.8721 11.7495Q31.3828 10.8228 33.4141 10.8228Q35.1597 10.8228 36.6323 11.5781Q38.1113 12.3271 39 13.9141Q39.895 15.4946 39.895 17.9829L39.895 19.0112L30.0181 19.0112Q30.0435 20.8267 31.0273 21.8423Q32.0112 22.8579 33.6362 22.8579Q34.7153 22.8579 35.5024 22.3945Q36.2959 21.9312 36.6387 21.0298L39.7554 21.3853Q39.311 23.2324 37.6924 24.3496Q36.0737 25.4668 33.5918 25.4668ZM30.0244 16.7578L36.6895 16.7578Q36.6831 15.3105 35.7881 14.3711Q34.8994 13.4253 33.4585 13.4253Q31.9668 13.4253 31.0337 14.4155Q30.1006 15.3994 30.0244 16.7578ZM45.5762 25.1875L41.5645 11.0068L44.9731 11.0068L47.4678 20.979L47.5947 20.979L50.1465 11.0068L53.5171 11.0068L56.0625 20.9219L56.2021 20.9219L58.6587 11.0068L62.0737 11.0068L58.0557 25.1875L54.5771 25.1875L51.9175 15.6025L51.7207 15.6025L49.061 25.1875L45.5762 25.1875ZM70.875 25.1875L70.875 11.0068L74.2139 11.0068L74.2139 25.1875L70.875 25.1875ZM72.5508 8.99463Q71.751 8.99463 71.1797 8.46142Q70.6148 7.92822 70.6148 7.18554Q70.6148 6.42383 71.1797 5.89697Q71.751 5.36377 72.5508 5.36377Q73.3443 5.36377 73.9092 5.89697Q74.4805 6.42383 74.4805 7.18554Q74.4805 7.92822 73.9092 8.46142Q73.3443 8.99463 72.5508 8.99463ZM84.7297 11.0068L84.7297 13.5903L81.9304 13.5903L81.9304 20.9219Q81.9304 21.9312 82.3747 22.2485Q82.819 22.5659 83.4474 22.5659Q83.7585 22.5659 84.0187 22.5215Q84.2853 22.4707 84.425 22.439L84.9899 25.0478Q84.7233 25.1431 84.2282 25.251Q83.7331 25.3652 83.0221 25.3843Q81.1369 25.4351 79.8547 24.4575Q78.5788 23.48 78.5915 21.4741L78.5915 13.5903L76.5793 13.5903L76.5793 11.0068L78.5915 11.0068L78.5915 7.61084L81.9304 7.61084L81.9304 11.0068L84.7297 11.0068ZM100.168 25.4668Q98.0921 25.4668 96.5686 24.5527Q95.0452 23.6387 94.2073 21.9883Q93.3758 20.3379 93.3758 18.1543Q93.3758 15.9517 94.2073 14.3076Q95.0452 12.6572 96.5686 11.7432Q98.0921 10.8228 100.168 10.8228Q102.243 10.8228 103.773 11.7432Q105.303 12.6572 106.135 14.3076Q106.966 15.9517 106.966 18.1543Q106.966 20.3379 106.135 21.9883Q105.303 23.6387 103.773 24.5527Q102.243 25.4668 100.168 25.4668ZM100.187 22.7881Q101.323 22.7881 102.072 22.1724Q102.827 21.5503 103.202 20.4966Q103.576 19.4365 103.576 18.1416Q103.576 16.8403 103.202 15.7866Q102.827 14.7266 102.072 14.0981Q101.323 13.4697 100.187 13.4697Q99.0442 13.4697 98.2825 14.0981Q97.5208 14.7266 97.1399 15.7866Q96.7591 16.8403 96.7591 18.1416Q96.7591 19.4365 97.1399 20.4966Q97.5208 21.5503 98.2825 22.1724Q99.0442 22.7881 100.187 22.7881ZM113.131 16.8784L113.131 25.1875L109.792 25.1875L109.792 11.0068L112.985 11.0068L112.985 13.4126L113.15 13.4126Q113.639 12.2319 114.711 11.5273Q115.79 10.8228 117.377 10.8228Q119.574 10.8228 120.907 12.2192Q122.246 13.6094 122.233 16.1548L122.233 25.1875L118.894 25.1875L118.894 16.6753Q118.894 15.2534 118.158 14.4536Q117.422 13.6475 116.133 13.6475Q114.813 13.6475 113.969 14.4917Q113.131 15.3359 113.131 16.8784Z" />
      </g>
    </g>
  </g>
</svg>