<?xml version="1.0" encoding="utf-8"?>
<svg width="512px" height="73px" viewBox="0 0 512 73" version="1.1" xmlns:xlink="http://www.w3.org/1999/xlink" xmlns="http://www.w3.org/2000/svg">
  <defs>
    <path d="M512 0L512 0L512 73L0 73L0 0L512 0Z" id="path_1" />
    <clipPath id="clip_1">
      <use xlink:href="#path_1" clip-rule="evenodd" fill-rule="evenodd" />
    </clipPath>
  </defs>
  <g id="thunderstore2">
    <path d="M512 0L512 0L512 73L0 73L0 0L512 0Z" id="thunderstore2" fill="none" stroke="none" />
    <path d="M506 0C509.314 0 512 2.68584 512 6L512 67C512 70.3142 509.314 73 506 73L227 73L227 0L506 0Z" id="Rectangle" fill="#4E98E0" stroke="none" clip-path="url(#clip_1)" />
    <g id="Thunderstore" transform="translate(312.19995 14.5)" clip-path="url(#clip_1)">
      <g transform="translate(0, 6.278409)" id="Thunderstore" fill="#FFFFFF">
        <path d="M0.92041 9.57226L0.92041 6.27783L16.4531 6.27783L16.4531 9.57226L10.6641 9.57226L10.6641 25.1875L6.70947 25.1875L6.70947 9.57226L0.92041 9.57226ZM22.8798 16.9863L22.8798 25.1875L18.9443 25.1875L18.9443 6.27783L22.7656 6.27783L22.7656 13.5078L22.937 13.5078Q23.4257 12.251 24.4921 11.54Q25.5585 10.8228 27.1709 10.8228Q29.3862 10.8228 30.7319 12.2446Q32.0839 13.6665 32.0776 16.1548L32.0776 25.1875L28.142 25.1875L28.142 16.8594Q28.1484 15.5454 27.4819 14.8218Q26.8154 14.0918 25.6093 14.0918Q24.4096 14.0918 23.6479 14.8535Q22.8862 15.6152 22.8798 16.9863ZM44.272 19.1509L44.272 11.0068L48.2076 11.0068L48.2076 25.1875L44.4307 25.1875L44.4307 22.6103L44.2784 22.6103Q43.8023 23.8608 42.6851 24.6162Q41.5743 25.3716 39.981 25.3716Q37.8355 25.3716 36.5088 23.9497Q35.1885 22.5215 35.1758 20.0332L35.1758 11.0068L39.1114 11.0068L39.1114 19.335Q39.1177 20.5918 39.7842 21.3218Q40.4507 22.0454 41.5679 22.0454Q42.628 22.0454 43.4532 21.3091Q44.2784 20.5728 44.272 19.1509ZM55.2783 16.9863L55.2783 25.1875L51.3427 25.1875L51.3427 11.0068L55.0942 11.0068L55.0942 13.5078L55.2592 13.5078Q55.7417 12.27 56.8398 11.5464Q57.9443 10.8228 59.5249 10.8228Q61.7402 10.8228 63.0795 12.251Q64.4189 13.6728 64.4189 16.1548L64.4189 25.1875L60.4834 25.1875L60.4834 16.8594Q60.496 15.5581 59.8168 14.8281Q59.144 14.0918 57.9633 14.0918Q56.7763 14.0918 56.0273 14.8535Q55.2846 15.6152 55.2783 16.9863ZM72.7401 25.416Q71.1214 25.416 69.8202 24.5845Q68.5189 23.7466 67.7508 22.1216Q66.9828 20.4902 66.9828 18.1162Q66.9828 15.6787 67.7699 14.0601Q68.5633 12.4351 69.871 11.6289Q71.1786 10.8228 72.7274 10.8228Q73.9208 10.8228 74.7142 11.2227Q75.514 11.6226 76.0091 12.2129Q76.5043 12.8032 76.7645 13.3872L76.8851 13.3872L76.8851 6.27783L80.808 6.27783L80.808 25.1875L76.9296 25.1875L76.9296 22.915L76.7645 22.915Q76.4979 23.5054 75.9901 24.083Q75.4823 24.6606 74.6825 25.0415Q73.8827 25.416 72.7401 25.416ZM73.9842 22.2866Q75.4061 22.2866 76.1869 21.1377Q76.9676 19.9888 76.9676 18.0972Q76.9676 16.1929 76.1869 15.0757Q75.4125 13.9521 73.9842 13.9521Q72.5243 13.9521 71.7626 15.1011Q71.0008 16.25 71.0008 18.0972Q71.0008 19.9507 71.7689 21.1187Q72.537 22.2866 73.9842 22.2866ZM90.4893 25.4668Q88.312 25.4668 86.7315 24.5781Q85.1573 23.6831 84.3067 22.0454Q83.4561 20.4077 83.4561 18.1606Q83.4561 15.9707 84.3067 14.3203Q85.1573 12.6699 86.6997 11.7495Q88.2486 10.8228 90.337 10.8228Q92.2095 10.8228 93.7203 11.6162Q95.231 12.4097 96.1133 14.0156Q97.002 15.6152 97.002 18.021L97.002 19.1001L87.3409 19.1001L87.3409 19.1128Q87.3409 20.6997 88.2105 21.6138Q89.0801 22.5278 90.5591 22.5278Q91.543 22.5278 92.2603 22.1152Q92.9839 21.6963 93.2823 20.8838L96.9195 21.125Q96.5005 23.0991 94.812 24.2861Q93.1236 25.4668 90.4893 25.4668ZM87.3409 16.6626L93.3013 16.6626Q93.2886 15.3994 92.4825 14.5806Q91.6827 13.7554 90.4004 13.7554Q89.0865 13.7554 88.2486 14.606Q87.4107 15.4565 87.3409 16.6626ZM99.5664 25.1875L99.5664 11.0068L103.381 11.0068L103.381 13.4824L103.527 13.4824Q103.915 12.1621 104.829 11.4829Q105.743 10.8037 106.936 10.8037Q107.59 10.8037 108.174 10.9434L108.174 14.4282Q107.895 14.3394 107.406 14.2822Q106.917 14.2187 106.511 14.2187Q105.21 14.2187 104.353 15.0376Q103.502 15.8501 103.502 17.1641L103.502 25.1875L99.5664 25.1875ZM121.994 15.0503L118.395 15.2725Q118.249 14.5869 117.646 14.0981Q117.049 13.6094 116.021 13.6094Q115.107 13.6094 114.472 13.9966Q113.843 14.3774 113.85 15.0122Q113.843 15.52 114.25 15.8755Q114.662 16.2246 115.653 16.4341L118.217 16.9546Q122.311 17.7925 122.318 20.7949Q122.318 22.1851 121.499 23.2388Q120.686 24.2925 119.264 24.8828Q117.842 25.4668 116.002 25.4668Q113.19 25.4668 111.514 24.2925Q109.844 23.1118 109.565 21.0806L113.437 20.8774Q113.621 21.7407 114.288 22.1851Q114.961 22.6294 116.014 22.6294Q117.049 22.6294 117.677 22.2231Q118.312 21.8169 118.319 21.1885Q118.293 20.1348 116.503 19.7793L114.047 19.2905Q109.927 18.4653 109.946 15.2344Q109.94 13.1841 111.584 12.0034Q113.234 10.8228 115.957 10.8228Q118.642 10.8228 120.185 11.959Q121.734 13.0952 121.994 15.0503ZM132.347 11.0068L132.347 13.9585L129.675 13.9585L129.675 20.8267Q129.675 21.6392 130.043 21.9312Q130.418 22.2168 131.008 22.2168Q131.281 22.2168 131.56 22.166Q131.84 22.1152 131.986 22.0835L132.601 25.0098Q132.309 25.105 131.77 25.2256Q131.237 25.3525 130.469 25.3843Q128.329 25.4731 127.028 24.4575Q125.733 23.4355 125.746 21.3472L125.746 13.9585L123.804 13.9585L123.804 11.0068L125.746 11.0068L125.746 7.61084L129.675 7.61084L129.675 11.0068L132.347 11.0068ZM141.164 25.4668Q139.013 25.4668 137.445 24.5464Q135.883 23.626 135.033 21.9819Q134.182 20.3315 134.182 18.1543Q134.182 15.9517 135.033 14.3076Q135.883 12.6572 137.445 11.7432Q139.013 10.8228 141.164 10.8228Q143.316 10.8228 144.878 11.7432Q146.446 12.6572 147.29 14.3076Q148.14 15.9517 148.14 18.1543Q148.14 20.3315 147.29 21.9819Q146.446 23.626 144.878 24.5464Q143.316 25.4668 141.164 25.4668ZM141.183 22.4199Q142.637 22.4199 143.392 21.2012Q144.148 19.9824 144.148 18.1226Q144.148 16.269 143.392 15.0439Q142.637 13.8188 141.183 13.8188Q139.692 13.8188 138.936 15.0439Q138.181 16.269 138.181 18.1226Q138.181 19.9824 138.936 21.2012Q139.692 22.4199 141.183 22.4199ZM150.708 25.1875L150.708 11.0068L154.523 11.0068L154.523 13.4824L154.669 13.4824Q155.056 12.1621 155.97 11.4829Q156.884 10.8037 158.077 10.8037Q158.731 10.8037 159.315 10.9434L159.315 14.4282Q159.036 14.3394 158.547 14.2822Q158.058 14.2187 157.652 14.2187Q156.351 14.2187 155.494 15.0376Q154.643 15.8501 154.643 17.1641L154.643 25.1875L150.708 25.1875ZM167.132 25.4668Q164.955 25.4668 163.374 24.5781Q161.8 23.6831 160.949 22.0454Q160.099 20.4077 160.099 18.1606Q160.099 15.9707 160.949 14.3203Q161.8 12.6699 163.342 11.7495Q164.891 10.8228 166.98 10.8228Q168.852 10.8228 170.363 11.6162Q171.874 12.4097 172.756 14.0156Q173.645 15.6152 173.645 18.021L173.645 19.1001L163.984 19.1001L163.984 19.1128Q163.984 20.6997 164.853 21.6138Q165.723 22.5278 167.202 22.5278Q168.186 22.5278 168.903 22.1152Q169.627 21.6963 169.925 20.8838L173.562 21.125Q173.143 23.0991 171.455 24.2861Q169.766 25.4668 167.132 25.4668ZM163.984 16.6626L169.944 16.6626Q169.931 15.3994 169.125 14.5806Q168.325 13.7554 167.043 13.7554Q165.729 13.7554 164.891 14.606Q164.053 15.4565 163.984 16.6626Z" />
      </g>
    </g>
    <path d="M298.2 18.6875L270.183 18.6875Q269.92 18.6875 269.659 18.7219Q269.399 18.7563 269.145 18.8246Q268.891 18.8928 268.648 18.9937Q268.406 19.0946 268.178 19.2264Q267.951 19.3582 267.743 19.5186Q267.534 19.679 267.349 19.8653Q267.164 20.0516 267.004 20.2606Q266.845 20.4696 266.714 20.6977L258.774 34.5534Q258.644 34.7799 258.545 35.0212Q258.445 35.2626 258.378 35.5148Q258.311 35.767 258.278 36.0258Q258.244 36.2845 258.244 36.5455Q258.245 36.8065 258.279 37.0652Q258.313 37.3239 258.381 37.5759Q258.448 37.828 258.548 38.0692Q258.648 38.3103 258.778 38.5365L266.62 52.1546L270.546 45.2342L266.152 37.5142Q266.088 37.401 266.038 37.2804Q265.989 37.1599 265.956 37.0339Q265.923 36.908 265.906 36.7789Q265.89 36.6497 265.89 36.5195Q265.891 36.3892 265.908 36.2602Q265.925 36.1311 265.959 36.0054Q265.993 35.8797 266.043 35.7594Q266.093 35.6391 266.158 35.5263L271.33 26.5625Q271.396 26.449 271.475 26.345Q271.555 26.241 271.648 26.1483Q271.74 26.0556 271.844 25.9758Q271.948 25.896 272.062 25.8305Q272.175 25.7649 272.296 25.7148Q272.417 25.6646 272.544 25.6307Q272.671 25.5967 272.801 25.5796Q272.931 25.5625 273.062 25.5625L276.834 25.5625L272.164 35.0548L277.618 35.0482L268.428 53.4204L285.899 31.5852L280.554 31.5805L284.103 25.5625L294.267 25.5625L298.2 18.6875ZM286.133 54.3125L270.757 54.3125L274.69 47.4375L283.255 47.4375Q283.385 47.4375 283.513 47.4208Q283.642 47.4041 283.767 47.3709Q283.892 47.3378 284.012 47.2888Q284.132 47.2398 284.244 47.1757Q284.357 47.1116 284.46 47.0335Q284.564 46.9555 284.656 46.8647Q284.748 46.774 284.828 46.6721Q284.908 46.5702 284.974 46.4588L290.248 37.5741Q290.315 37.4604 290.367 37.3387Q290.419 37.2171 290.455 37.0897Q290.49 36.9623 290.508 36.8314Q290.527 36.7004 290.528 36.5682Q290.529 36.4359 290.512 36.3047Q290.496 36.1735 290.462 36.0456Q290.429 35.9177 290.378 35.7954Q290.328 35.673 290.262 35.5583L286.48 28.971L294.415 28.9571L297.622 34.4758Q297.755 34.7035 297.856 34.9466Q297.957 35.1898 298.026 35.4441Q298.094 35.6984 298.129 35.9596Q298.163 36.2207 298.164 36.4841Q298.164 36.7475 298.129 37.0086Q298.095 37.2698 298.026 37.5241Q297.958 37.7785 297.856 38.0216Q297.755 38.2648 297.623 38.4926L289.59 52.3224Q289.459 52.5485 289.299 52.7555Q289.14 52.9625 288.955 53.147Q288.77 53.3314 288.562 53.4902Q288.354 53.649 288.128 53.7794Q287.901 53.9098 287.66 54.0096Q287.418 54.1094 287.165 54.1769Q286.913 54.2444 286.654 54.2785Q286.395 54.3125 286.133 54.3125Z" id="Rectangle-Union" fill="#FFFFFF" fill-rule="evenodd" stroke="none" clip-path="url(#clip_1)" />
    <path d="M230.4 0L230.4 0L230.4 73L6 73C2.68584 73 0 70.3142 0 67L0 6C0 2.68584 2.68584 0 6 0L230.4 0Z" id="Rectangle" fill="#59ADFF" stroke="none" clip-path="url(#clip_1)" />
    <g id="Download-it-on" transform="translate(22.200073 14.5)" clip-path="url(#clip_1)">
      <g transform="translate(0, 6.278409)" id="Download-it-on" fill="#FFFFFF">
        <path d="M8.20117 25.1875L2.07568 25.1875L2.07568 6.27783L8.3916 6.27783Q11.1782 6.27783 13.165 7.40771Q15.1582 8.5376 16.2246 10.6514Q17.291 12.7588 17.291 15.7041Q17.291 18.6621 16.2183 20.7886Q15.1519 22.9087 13.1143 24.0513Q11.0767 25.1875 8.20117 25.1875ZM4.93213 22.6929L8.04248 22.6929Q11.2734 22.6929 12.8794 20.8838Q14.4854 19.0684 14.4854 15.7041Q14.4854 12.3652 12.8984 10.5688Q11.3179 8.77246 8.22021 8.77246L4.93213 8.77246L4.93213 22.6929ZM26.588 25.4731Q24.5949 25.4731 23.1095 24.5591Q21.6242 23.645 20.799 22.001Q19.9801 20.3506 19.9801 18.1606Q19.9801 15.9517 20.799 14.3013Q21.6242 12.6509 23.1095 11.7368Q24.5949 10.8228 26.588 10.8228Q28.5939 10.8228 30.0729 11.7368Q31.5582 12.6509 32.3771 14.3013Q33.2023 15.9517 33.2023 18.1606Q33.2023 20.3506 32.3771 22.001Q31.5582 23.645 30.0729 24.5591Q28.5939 25.4731 26.588 25.4731ZM26.6007 23.1562Q27.902 23.1562 28.7462 22.477Q29.5905 21.7915 30.0031 20.6489Q30.4157 19.5063 30.4157 18.1543Q30.4157 16.7959 30.0031 15.6533Q29.5905 14.5044 28.7462 13.8188Q27.902 13.127 26.6007 13.127Q25.2994 13.127 24.4489 13.8188Q23.5983 14.5044 23.1793 15.6533Q22.7667 16.7959 22.7667 18.1543Q22.7667 19.5063 23.1793 20.6489Q23.5983 21.7915 24.4489 22.477Q25.2994 23.1562 26.6007 23.1562ZM38.9186 25.1875L34.7419 11.0068L37.5983 11.0068L40.3786 21.4233L40.5119 21.4233L43.3049 11.0068L46.155 11.0068L48.9225 21.3726L49.0622 21.3726L51.8234 11.0068L54.6799 11.0068L50.5158 25.1875L47.6974 25.1875L44.8156 14.9487L44.6061 14.9487L41.7243 25.1875L38.9186 25.1875ZM60.0494 16.7642L60.0494 25.1875L57.2882 25.1875L57.2882 11.0068L59.9415 11.0068L59.9415 13.311L60.1129 13.311Q60.608 12.1875 61.6554 11.5083Q62.7027 10.8228 64.296 10.8228Q66.4796 10.8228 67.7999 12.1812Q69.1265 13.5332 69.1265 16.1675L69.1265 25.1875L66.3653 25.1875L66.3653 16.4976Q66.3653 14.9551 65.5592 14.0854Q64.7594 13.2095 63.3565 13.2095Q61.9156 13.2095 60.9825 14.1426Q60.0494 15.0693 60.0494 16.7642ZM75.5792 6.27783L75.5792 25.1875L72.818 25.1875L72.818 6.27783L75.5792 6.27783ZM85.2634 25.4731Q83.2703 25.4731 81.7849 24.5591Q80.2996 23.645 79.4744 22.001Q78.6555 20.3506 78.6555 18.1606Q78.6555 15.9517 79.4744 14.3013Q80.2996 12.6509 81.7849 11.7368Q83.2703 10.8228 85.2634 10.8228Q87.2693 10.8228 88.7483 11.7368Q90.2337 12.6509 91.0525 14.3013Q91.8777 15.9517 91.8777 18.1606Q91.8777 20.3506 91.0525 22.001Q90.2337 23.645 88.7483 24.5591Q87.2693 25.4731 85.2634 25.4731ZM85.2761 23.1562Q86.5774 23.1562 87.4216 22.477Q88.2659 21.7915 88.6785 20.6489Q89.0911 19.5063 89.0911 18.1543Q89.0911 16.7959 88.6785 15.6533Q88.2659 14.5044 87.4216 13.8188Q86.5774 13.127 85.2761 13.127Q83.9749 13.127 83.1243 13.8188Q82.2737 14.5044 81.8548 15.6533Q81.4422 16.7959 81.4422 18.1543Q81.4422 19.5063 81.8548 20.6489Q82.2737 21.7915 83.1243 22.477Q83.9749 23.1562 85.2761 23.1562ZM99.0817 25.4985Q97.7297 25.4985 96.6442 25.0034Q95.5588 24.502 94.924 23.5371Q94.2892 22.5723 94.2892 21.1821Q94.2892 19.9697 94.7526 19.1953Q95.2223 18.4209 95.9967 17.9702Q96.7775 17.5132 97.7487 17.291Q98.7199 17.0625 99.7228 16.9419Q100.999 16.7959 101.786 16.7007Q102.579 16.5991 102.941 16.377Q103.309 16.1548 103.309 15.6597L103.309 15.5962Q103.309 14.3838 102.63 13.7236Q101.951 13.0571 100.611 13.0571Q99.215 13.0571 98.4152 13.6665Q97.6217 14.2759 97.3171 15.0312L94.7209 14.4409Q95.4128 12.4985 97.0314 11.6606Q98.6564 10.8228 100.573 10.8228Q101.424 10.8228 102.376 11.0195Q103.328 11.2163 104.173 11.7495Q105.017 12.2827 105.544 13.2539Q106.077 14.2187 106.077 15.7676L106.077 25.1875L103.379 25.1875L103.379 23.2515L103.271 23.2515Q102.871 24.0449 101.856 24.7749Q100.84 25.4985 99.0817 25.4985ZM99.6784 23.2832Q100.834 23.2832 101.646 22.8325Q102.459 22.3818 102.884 21.6519Q103.316 20.9155 103.316 20.0713L103.316 18.2432Q103.125 18.4399 102.465 18.5859Q101.811 18.7319 101.081 18.8335Q100.351 18.9351 99.9006 18.9985Q98.7009 19.1572 97.8439 19.6333Q96.9933 20.1094 96.9933 21.2202Q96.9933 22.2422 97.7487 22.7627Q98.5041 23.2832 99.6784 23.2832ZM115.063 25.4668Q113.343 25.4668 112.003 24.5908Q110.664 23.7085 109.896 22.0645Q109.134 20.4141 109.134 18.1226Q109.134 15.8247 109.902 14.1934Q110.677 12.5557 112.022 11.6924Q113.374 10.8228 115.082 10.8228Q116.402 10.8228 117.208 11.2607Q118.014 11.6987 118.459 12.2827Q118.909 12.8603 119.163 13.3047L119.328 13.3047L119.328 6.27783L122.09 6.27783L122.09 25.1875L119.392 25.1875L119.392 22.9785L119.163 22.9785Q118.909 23.4355 118.44 24.0195Q117.976 24.5972 117.164 25.0352Q116.351 25.4668 115.063 25.4668ZM115.672 23.1118Q117.462 23.1118 118.414 21.7217Q119.373 20.3315 119.373 18.0972Q119.373 15.8691 118.427 14.5171Q117.481 13.165 115.672 13.165Q114.422 13.165 113.59 13.8125Q112.765 14.46 112.34 15.5708Q111.921 16.6816 111.921 18.0972Q111.921 19.519 112.346 20.6553Q112.771 21.7915 113.603 22.4517Q114.441 23.1118 115.672 23.1118ZM132.906 25.1875L132.906 11.0068L135.667 11.0068L135.667 25.1875L132.906 25.1875ZM134.303 8.81689Q133.585 8.81689 133.071 8.33447Q132.557 7.8457 132.557 7.17285Q132.557 6.49365 133.071 6.01123Q133.585 5.52246 134.303 5.52246Q135.013 5.52246 135.528 6.01123Q136.048 6.49365 136.048 7.17285Q136.048 7.8457 135.528 8.33447Q135.013 8.81689 134.303 8.81689ZM145.999 11.0068L145.999 13.2222L143.092 13.2222L143.092 21.0234Q143.092 22.2231 143.606 22.5723Q144.12 22.915 144.793 22.915Q145.123 22.915 145.371 22.8706Q145.624 22.8262 145.758 22.7944L146.259 25.0796Q146.018 25.1685 145.567 25.2637Q145.123 25.3652 144.469 25.3716Q143.377 25.3906 142.432 24.9844Q141.486 24.5781 140.908 23.7275Q140.331 22.877 140.331 21.5947L140.331 13.2222L138.255 13.2222L138.255 11.0068L140.331 11.0068L140.331 7.61084L143.092 7.61084L143.092 11.0068L145.999 11.0068ZM161.906 25.4731Q159.913 25.4731 158.428 24.5591Q156.942 23.645 156.117 22.001Q155.298 20.3506 155.298 18.1606Q155.298 15.9517 156.117 14.3013Q156.942 12.6509 158.428 11.7368Q159.913 10.8228 161.906 10.8228Q163.912 10.8228 165.391 11.7368Q166.876 12.6509 167.695 14.3013Q168.52 15.9517 168.52 18.1606Q168.52 20.3506 167.695 22.001Q166.876 23.645 165.391 24.5591Q163.912 25.4731 161.906 25.4731ZM161.919 23.1562Q163.22 23.1562 164.064 22.477Q164.909 21.7915 165.321 20.6489Q165.734 19.5063 165.734 18.1543Q165.734 16.7959 165.321 15.6533Q164.909 14.5044 164.064 13.8188Q163.22 13.127 161.919 13.127Q160.618 13.127 159.767 13.8188Q158.916 14.5044 158.497 15.6533Q158.085 16.7959 158.085 18.1543Q158.085 19.5063 158.497 20.6489Q158.916 21.7915 159.767 22.477Q160.618 23.1562 161.919 23.1562ZM174.353 16.7642L174.353 25.1875L171.592 25.1875L171.592 11.0068L174.245 11.0068L174.245 13.311L174.417 13.311Q174.912 12.1875 175.959 11.5083Q177.007 10.8228 178.6 10.8228Q180.784 10.8228 182.104 12.1812Q183.431 13.5332 183.431 16.1675L183.431 25.1875L180.669 25.1875L180.669 16.4976Q180.669 14.9551 179.863 14.0854Q179.063 13.2095 177.66 13.2095Q176.22 13.2095 175.286 14.1426Q174.353 15.0693 174.353 16.7642Z" />
      </g>
    </g>
  </g>
</svg>